{"asset":{"version":"2.0","generator":"Blockbench 5.2.1 glTF exporter"},"scenes":[{"nodes":[0,1,2,3,4,5,6],"name":"blockbench_export"}],"scene":0,"nodes":[{"name":"elevator","mesh":0},{"translation":[0.1875,0.3125,0.125],"name":"dorm","mesh":1},{"translation":[0.1875,1,0.125],"name":"store","mesh":2},{"translation":[0.4375,1.46875,0.0625],"name":"comms","mesh":3},{"translation":[-0.125,0.65625,0.125],"name":"data","mesh":4},{"translation":[-0.125,0,0.125],"name":"lab","mesh":5},{"translation":[1.59375,1.0625,0],"name":"backup","mesh":6}],"bufferViews":[{"buffer":0,"byteOffset":0,"byteLength":288,"target":34962,"byteStride":12},{"buffer":0,"byteOffset":288,"byteLength":288,"target":34962,"byteStride":12},{"buffer":0,"byteOffset":576,"byteLength":192,"target":34962,"byteStride":8},{"buffer":0,"byteOffset":768,"byteLength":72,"target":34963},{"buffer":0,"byteOffset":840,"byteLength":2592,"target":34962,"byteStride":12},{"buffer":0,"byteOffset":3432,"byteLength":2592,"target":34962,"byteStride":12},{"buffer":0,"byteOffset":6024,"byteLength":1728,"target":34962,"byteStride":8},{"buffer":0,"byteOffset":7752,"byteLength":648,"target":34963},{"buffer":0,"byteOffset":8400,"byteLength":2592,"target":34962,"byteStride":12},{"buffer":0,"byteOffset":10992,"byteLength":2592,"target":34962,"byteStride":12},{"buffer":0,"byteOffset":13584,"byteLength":1728,"target":34962,"byteStride":8},{"buffer":0,"byteOffset":15312,"byteLength":648,"target":34963},{"buffer":0,"byteOffset":15960,"byteLength":2304,"target":34962,"byteStride":12},{"buffer":0,"byteOffset":18264,"byteLength":2304,"target":34962,"byteStride":12},{"buffer":0,"byteOffset":20568,"byteLength":1536,"target":34962,"byteStride":8},{"buffer":0,"byteOffset":22104,"byteLength":576,"target":34963},{"buffer":0,"byteOffset":22680,"byteLength":3456,"target":34962,"byteStride":12},{"buffer":0,"byteOffset":26136,"byteLength":3456,"target":34962,"byteStride":12},{"buffer":0,"byteOffset":29592,"byteLength":2304,"target":34962,"byteStride":8},{"buffer":0,"byteOffset":31896,"byteLength":864,"target":34963},{"buffer":0,"byteOffset":32760,"byteLength":2592,"target":34962,"byteStride":12},{"buffer":0,"byteOffset":35352,"byteLength":2592,"target":34962,"byteStride":12},{"buffer":0,"byteOffset":37944,"byteLength":1728,"target":34962,"byteStride":8},{"buffer":0,"byteOffset":39672,"byteLength":648,"target":34963},{"buffer":0,"byteOffset":40320,"byteLength":288,"target":34962,"byteStride":12},{"buffer":0,"byteOffset":40608,"byteLength":288,"target":34962,"byteStride":12},{"buffer":0,"byteOffset":40896,"byteLength":192,"target":34962,"byteStride":8},{"buffer":0,"byteOffset":41088,"byteLength":72,"target":34963}],"buffers":[{"byteLength":41160,"uri":"data:application/octet-stream;base64,"}],"accessors":[{"bufferView":0,"componentType":5126,"count":24,"max":[0.0625,1.46875,0.15625],"min":[0,0,0.09375],"type":"VEC3"},{"bufferView":1,"componentType":5126,"count":24,"max":[1,1,1],"min":[-1,-1,-1],"type":"VEC3"},{"bufferView":2,"componentType":5126,"count":24,"max":[0.5,0.5],"min":[0,0],"type":"VEC2"},{"bufferView":3,"componentType":5123,"count":36,"max":[23],"min":[0],"type":"SCALAR"},{"bufferView":4,"componentType":5126,"count":216,"max":[1.4375,0.0625,0.34375],"min":[-0.125,0,-0.34375],"type":"VEC3"},{"bufferView":5,"componentType":5126,"count":216,"max":[1,1,1],"min":[-1,-1,-1],"type":"VEC3"},{"bufferView":6,"componentType":5126,"count":216,"max":[0.5,0.5],"min":[0,0],"type":"VEC2"},{"bufferView":7,"componentType":5123,"count":324,"max":[215],"min":[0],"type":"SCALAR"},{"bufferView":8,"componentType":5126,"count":216,"max":[1.40625,0.0625,0.53125],"min":[-0.125,0,-0.53125],"type":"VEC3"},{"bufferView":9,"componentType":5126,"count":216,"max":[1,1,1],"min":[-1,-1,-1],"type":"VEC3"},{"bufferView":10,"componentType":5126,"count":216,"max":[0.5,0.5],"min":[0,0],"type":"VEC2"},{"bufferView":11,"componentType":5123,"count":324,"max":[215],"min":[0],"type":"SCALAR"},{"bufferView":12,"componentType":5126,"count":192,"max":[1.28125,0.59375,0.4375],"min":[-1.59375,0,-0.15625],"type":"VEC3"},{"bufferView":13,"componentType":5126,"count":192,"max":[1,1,1],"min":[-1,-1,-1],"type":"VEC3"},{"bufferView":14,"componentType":5126,"count":192,"max":[0.5,0.5],"min":[0,0],"type":"VEC2"},{"bufferView":15,"componentType":5123,"count":288,"max":[191],"min":[0],"type":"SCALAR"},{"bufferView":16,"componentType":5126,"count":288,"max":[0.125,0.125,0.59375],"min":[-1.625,0,-0.34375],"type":"VEC3"},{"bufferView":17,"componentType":5126,"count":288,"max":[1,1,1],"min":[-1,-1,-1],"type":"VEC3"},{"bufferView":18,"componentType":5126,"count":288,"max":[0.5,0.5],"min":[0,0],"type":"VEC2"},{"bufferView":19,"componentType":5123,"count":432,"max":[287],"min":[0],"type":"SCALAR"},{"bufferView":20,"componentType":5126,"count":216,"max":[0.125,0.125,0.21875],"min":[-1.375,0,-0.3125],"type":"VEC3"},{"bufferView":21,"componentType":5126,"count":216,"max":[1,1,1],"min":[-1,-1,-1],"type":"VEC3"},{"bufferView":22,"componentType":5126,"count":216,"max":[0.5,0.5],"min":[0,0],"type":"VEC2"},{"bufferView":23,"componentType":5123,"count":324,"max":[215],"min":[0],"type":"SCALAR"},{"bufferView":24,"componentType":5126,"count":24,"max":[0.0625,0.40625,0.15625],"min":[0,-0.0625,0.09375],"type":"VEC3"},{"bufferView":25,"componentType":5126,"count":24,"max":[1,1,1],"min":[-1,-1,-1],"type":"VEC3"},{"bufferView":26,"componentType":5126,"count":24,"max":[0.5,0.5],"min":[0,0],"type":"VEC2"},{"bufferView":27,"componentType":5123,"count":36,"max":[23],"min":[0],"type":"SCALAR"}],"materials":[{"pbrMetallicRoughness":{"metallicFactor":0,"roughnessFactor":1,"baseColorTexture":{"index":0}},"alphaMode":"MASK","alphaCutoff":0.05,"doubleSided":true}],"textures":[{"sampler":0,"source":0,"name":"texture_station_model.png"}],"samplers":[{"magFilter":9728,"minFilter":9728,"wrapS":33071,"wrapT":33071}],"images":[{"mimeType":"image/png","name":"texture_station_model.png","uri":"texture_station_model.png"}],"meshes":[{"primitives":[{"mode":4,"attributes":{"POSITION":0,"NORMAL":1,"TEXCOORD_0":2},"indices":3,"material":0}]},{"primitives":[{"mode":4,"attributes":{"POSITION":4,"NORMAL":5,"TEXCOORD_0":6},"indices":7,"material":0}]},{"primitives":[{"mode":4,"attributes":{"POSITION":8,"NORMAL":9,"TEXCOORD_0":10},"indices":11,"material":0}]},{"primitives":[{"mode":4,"attributes":{"POSITION":12,"NORMAL":13,"TEXCOORD_0":14},"indices":15,"material":0}]},{"primitives":[{"mode":4,"attributes":{"POSITION":16,"NORMAL":17,"TEXCOORD_0":18},"indices":19,"material":0}]},{"primitives":[{"mode":4,"attributes":{"POSITION":20,"NORMAL":21,"TEXCOORD_0":22},"indices":23,"material":0}]},{"primitives":[{"mode":4,"attributes":{"POSITION":24,"NORMAL":25,"TEXCOORD_0":26},"indices":27,"material":0}]}]}